# xmcd CD database file
#
# Track frame offsets:
#	150
#	14697
#	27234
#	42485
#	53685
#	68321
#	87490
#	107193
#	127968
#	141990
#	158248
#	169931
#	185131
#
# Disc length: 2674 seconds
#
# Revision: 1
# Processed by: cddbd v1.5.2PL0 Copyright (c) Steve Scherf et al.
# Submitted via: NeoAudio 9.9.9
#
DISCID=b50a700d
DTITLE=get up and dance special 49 - get up and dance special 49
DYEAR=2006
DGENRE=Country
TTITLE0=Solo Humana x
TTITLE1=Long Gone!
TTITLE2=Legend in my heart
TTITLE3=Gen-U-Wine
TTITLE4=Honky Tonkin'good time
TTITLE5=In my heart
TTITLE6=Bar Fly stomp
TTITLE7=Come here You
TTITLE8=Brokeback Waltz
TTITLE9=Romantic Mariachi
TTITLE10=Mambo Rock c
TTITLE11=Good night 2B lonely
TTITLE12=Holding back the Ocean
EXTD=YEAR: 2006
EXTT0=
EXTT1=
EXTT2=
EXTT3=
EXTT4=
EXTT5=
EXTT6=
EXTT7=
EXTT8=
EXTT9=
EXTT10=
EXTT11=
EXTT12=
PLAYORDER=
